<?xml version="1.0" standalone="no"?>
<!DOCTYPE svg PUBLIC "-//W3C//DTD SVG 20010904//EN"
 "http://www.w3.org/TR/2001/REC-SVG-20010904/DTD/svg10.dtd">
<svg version="1.0" xmlns="http://www.w3.org/2000/svg"
 width="512.000000pt" height="512.000000pt" viewBox="0 0 512.000000 512.000000"
 preserveAspectRatio="xMidYMid meet">
<metadata>
Created by potrace 1.14, written by Peter Selinger 2001-2017
</metadata>
<g transform="translate(0.000000,512.000000) scale(0.100000,-0.100000)"
fill="#000000" stroke="none">
<path d="M2042 5100 c-95 -25 -170 -68 -237 -137 -97 -99 -145 -220 -145 -362
0 -98 27 -189 79 -269 17 -26 208 -225 426 -442 l395 -395 390 390 c215 215
406 413 424 440 169 255 76 601 -198 735 -107 53 -199 69 -298 52 -94 -16
-205 -69 -268 -128 l-50 -46 -53 48 c-63 58 -141 98 -229 119 -83 19 -147 18
-236 -5z"/>
<path d="M1663 3925 c-416 -204 -763 -556 -958 -970 -141 -299 -202 -599 -192
-946 13 -489 187 -921 525 -1303 300 -340 723 -570 1197 -653 144 -25 499 -25
649 0 533 90 996 372 1321 805 498 663 541 1579 108 2287 -96 156 -263 359
-380 461 -154 134 -400 294 -530 344 -32 12 -34 12 -110 -58 -43 -39 -107
-100 -143 -137 -72 -73 -73 -72 15 -101 79 -26 232 -106 330 -172 402 -271
664 -690 735 -1177 15 -102 15 -347 0 -456 -52 -368 -215 -693 -482 -959 -429
-428 -1018 -588 -1613 -439 -521 131 -956 521 -1151 1032 -89 232 -127 500
-104 732 24 244 80 440 182 635 198 381 513 660 910 810 l87 32 -135 142 c-74
77 -139 142 -142 144 -4 1 -58 -23 -119 -53z"/>
</g>
</svg>
